G04 #@! TF.FileFunction,Legend,Top*
%FSLAX46Y46*%
G04 Gerber Fmt 4.6, Leading zero omitted, Abs format (unit mm)*
G04 Created by KiCad (PCBNEW 4.0.5) date 01/05/17 20:50:54*
%MOMM*%
%LPD*%
G01*
G04 APERTURE LIST*
%ADD10C,0.100000*%
%ADD11C,0.300000*%
%ADD12C,0.200000*%
%ADD13C,0.250000*%
%ADD14C,0.150000*%
%ADD15C,0.120000*%
G04 APERTURE END LIST*
D10*
D11*
X120226573Y-90618571D02*
X121083716Y-90618571D01*
X120655145Y-92118571D02*
X120655145Y-90618571D01*
X122298002Y-92118571D02*
X121583716Y-92118571D01*
X121583716Y-90618571D01*
X123655145Y-91975714D02*
X123583716Y-92047143D01*
X123369430Y-92118571D01*
X123226573Y-92118571D01*
X123012288Y-92047143D01*
X122869430Y-91904286D01*
X122798002Y-91761429D01*
X122726573Y-91475714D01*
X122726573Y-91261429D01*
X122798002Y-90975714D01*
X122869430Y-90832857D01*
X123012288Y-90690000D01*
X123226573Y-90618571D01*
X123369430Y-90618571D01*
X123583716Y-90690000D01*
X123655145Y-90761429D01*
X125012288Y-90618571D02*
X124298002Y-90618571D01*
X124226573Y-91332857D01*
X124298002Y-91261429D01*
X124440859Y-91190000D01*
X124798002Y-91190000D01*
X124940859Y-91261429D01*
X125012288Y-91332857D01*
X125083716Y-91475714D01*
X125083716Y-91832857D01*
X125012288Y-91975714D01*
X124940859Y-92047143D01*
X124798002Y-92118571D01*
X124440859Y-92118571D01*
X124298002Y-92047143D01*
X124226573Y-91975714D01*
X125798001Y-92118571D02*
X126083716Y-92118571D01*
X126226573Y-92047143D01*
X126298001Y-91975714D01*
X126440859Y-91761429D01*
X126512287Y-91475714D01*
X126512287Y-90904286D01*
X126440859Y-90761429D01*
X126369430Y-90690000D01*
X126226573Y-90618571D01*
X125940859Y-90618571D01*
X125798001Y-90690000D01*
X125726573Y-90761429D01*
X125655144Y-90904286D01*
X125655144Y-91261429D01*
X125726573Y-91404286D01*
X125798001Y-91475714D01*
X125940859Y-91547143D01*
X126226573Y-91547143D01*
X126369430Y-91475714D01*
X126440859Y-91404286D01*
X126512287Y-91261429D01*
X127798001Y-91118571D02*
X127798001Y-92118571D01*
X127440858Y-90547143D02*
X127083715Y-91618571D01*
X128012287Y-91618571D01*
X128869429Y-90618571D02*
X129012286Y-90618571D01*
X129155143Y-90690000D01*
X129226572Y-90761429D01*
X129298001Y-90904286D01*
X129369429Y-91190000D01*
X129369429Y-91547143D01*
X129298001Y-91832857D01*
X129226572Y-91975714D01*
X129155143Y-92047143D01*
X129012286Y-92118571D01*
X128869429Y-92118571D01*
X128726572Y-92047143D01*
X128655143Y-91975714D01*
X128583715Y-91832857D01*
X128512286Y-91547143D01*
X128512286Y-91190000D01*
X128583715Y-90904286D01*
X128655143Y-90761429D01*
X128726572Y-90690000D01*
X128869429Y-90618571D01*
X130512286Y-91332857D02*
X130726572Y-91404286D01*
X130798000Y-91475714D01*
X130869429Y-91618571D01*
X130869429Y-91832857D01*
X130798000Y-91975714D01*
X130726572Y-92047143D01*
X130583714Y-92118571D01*
X130012286Y-92118571D01*
X130012286Y-90618571D01*
X130512286Y-90618571D01*
X130655143Y-90690000D01*
X130726572Y-90761429D01*
X130798000Y-90904286D01*
X130798000Y-91047143D01*
X130726572Y-91190000D01*
X130655143Y-91261429D01*
X130512286Y-91332857D01*
X130012286Y-91332857D01*
X131726572Y-92118571D02*
X131583714Y-92047143D01*
X131512286Y-91975714D01*
X131440857Y-91832857D01*
X131440857Y-91404286D01*
X131512286Y-91261429D01*
X131583714Y-91190000D01*
X131726572Y-91118571D01*
X131940857Y-91118571D01*
X132083714Y-91190000D01*
X132155143Y-91261429D01*
X132226572Y-91404286D01*
X132226572Y-91832857D01*
X132155143Y-91975714D01*
X132083714Y-92047143D01*
X131940857Y-92118571D01*
X131726572Y-92118571D01*
X133512286Y-92118571D02*
X133512286Y-91332857D01*
X133440857Y-91190000D01*
X133298000Y-91118571D01*
X133012286Y-91118571D01*
X132869429Y-91190000D01*
X133512286Y-92047143D02*
X133369429Y-92118571D01*
X133012286Y-92118571D01*
X132869429Y-92047143D01*
X132798000Y-91904286D01*
X132798000Y-91761429D01*
X132869429Y-91618571D01*
X133012286Y-91547143D01*
X133369429Y-91547143D01*
X133512286Y-91475714D01*
X134226572Y-92118571D02*
X134226572Y-91118571D01*
X134226572Y-91404286D02*
X134298000Y-91261429D01*
X134369429Y-91190000D01*
X134512286Y-91118571D01*
X134655143Y-91118571D01*
X135798000Y-92118571D02*
X135798000Y-90618571D01*
X135798000Y-92047143D02*
X135655143Y-92118571D01*
X135369429Y-92118571D01*
X135226571Y-92047143D01*
X135155143Y-91975714D01*
X135083714Y-91832857D01*
X135083714Y-91404286D01*
X135155143Y-91261429D01*
X135226571Y-91190000D01*
X135369429Y-91118571D01*
X135655143Y-91118571D01*
X135798000Y-91190000D01*
X136155143Y-92261429D02*
X137298000Y-92261429D01*
X137440857Y-90618571D02*
X137940857Y-92118571D01*
X138440857Y-90618571D01*
X139726571Y-92118571D02*
X138869428Y-92118571D01*
X139298000Y-92118571D02*
X139298000Y-90618571D01*
X139155143Y-90832857D01*
X139012285Y-90975714D01*
X138869428Y-91047143D01*
D12*
X150296571Y-107275238D02*
X150344190Y-107132381D01*
X150391810Y-107084762D01*
X150487048Y-107037143D01*
X150629905Y-107037143D01*
X150725143Y-107084762D01*
X150772762Y-107132381D01*
X150820381Y-107227619D01*
X150820381Y-107608572D01*
X149820381Y-107608572D01*
X149820381Y-107275238D01*
X149868000Y-107180000D01*
X149915619Y-107132381D01*
X150010857Y-107084762D01*
X150106095Y-107084762D01*
X150201333Y-107132381D01*
X150248952Y-107180000D01*
X150296571Y-107275238D01*
X150296571Y-107608572D01*
X150820381Y-106465715D02*
X150772762Y-106560953D01*
X150677524Y-106608572D01*
X149820381Y-106608572D01*
X150820381Y-106084762D02*
X149820381Y-106084762D01*
X150439429Y-105989524D02*
X150820381Y-105703809D01*
X150153714Y-105703809D02*
X150534667Y-106084762D01*
X149820381Y-105163810D02*
X150820381Y-104497143D01*
X149820381Y-104497143D02*
X150820381Y-105163810D01*
X150820381Y-103640000D02*
X150820381Y-104116191D01*
X149820381Y-104116191D01*
X150153714Y-103449524D02*
X150153714Y-103068572D01*
X149820381Y-103306667D02*
X150677524Y-103306667D01*
X150772762Y-103259048D01*
X150820381Y-103163810D01*
X150820381Y-103068572D01*
X150772762Y-102536476D02*
X150820381Y-102393619D01*
X150820381Y-102155523D01*
X150772762Y-102060285D01*
X150725143Y-102012666D01*
X150629905Y-101965047D01*
X150534667Y-101965047D01*
X150439429Y-102012666D01*
X150391810Y-102060285D01*
X150344190Y-102155523D01*
X150296571Y-102346000D01*
X150248952Y-102441238D01*
X150201333Y-102488857D01*
X150106095Y-102536476D01*
X150010857Y-102536476D01*
X149915619Y-102488857D01*
X149868000Y-102441238D01*
X149820381Y-102346000D01*
X149820381Y-102107904D01*
X149868000Y-101965047D01*
X150725143Y-100965047D02*
X150772762Y-101012666D01*
X150820381Y-101155523D01*
X150820381Y-101250761D01*
X150772762Y-101393619D01*
X150677524Y-101488857D01*
X150582286Y-101536476D01*
X150391810Y-101584095D01*
X150248952Y-101584095D01*
X150058476Y-101536476D01*
X149963238Y-101488857D01*
X149868000Y-101393619D01*
X149820381Y-101250761D01*
X149820381Y-101155523D01*
X149868000Y-101012666D01*
X149915619Y-100965047D01*
X150820381Y-100536476D02*
X149820381Y-100536476D01*
X150439429Y-100441238D02*
X150820381Y-100155523D01*
X150153714Y-100155523D02*
X150534667Y-100536476D01*
X150772762Y-99528190D02*
X150820381Y-99385333D01*
X150820381Y-99147237D01*
X150772762Y-99051999D01*
X150725143Y-99004380D01*
X150629905Y-98956761D01*
X150534667Y-98956761D01*
X150439429Y-99004380D01*
X150391810Y-99051999D01*
X150344190Y-99147237D01*
X150296571Y-99337714D01*
X150248952Y-99432952D01*
X150201333Y-99480571D01*
X150106095Y-99528190D01*
X150010857Y-99528190D01*
X149915619Y-99480571D01*
X149868000Y-99432952D01*
X149820381Y-99337714D01*
X149820381Y-99099618D01*
X149868000Y-98956761D01*
X150820381Y-98528190D02*
X150153714Y-98528190D01*
X149820381Y-98528190D02*
X149868000Y-98575809D01*
X149915619Y-98528190D01*
X149868000Y-98480571D01*
X149820381Y-98528190D01*
X149915619Y-98528190D01*
X150153714Y-98052000D02*
X150820381Y-98052000D01*
X150248952Y-98052000D02*
X150201333Y-98004381D01*
X150153714Y-97909143D01*
X150153714Y-97766285D01*
X150201333Y-97671047D01*
X150296571Y-97623428D01*
X150820381Y-97623428D01*
X140605048Y-106180000D02*
X140509810Y-106132381D01*
X140366953Y-106132381D01*
X140224095Y-106180000D01*
X140128857Y-106275238D01*
X140081238Y-106370476D01*
X140033619Y-106560952D01*
X140033619Y-106703810D01*
X140081238Y-106894286D01*
X140128857Y-106989524D01*
X140224095Y-107084762D01*
X140366953Y-107132381D01*
X140462191Y-107132381D01*
X140605048Y-107084762D01*
X140652667Y-107037143D01*
X140652667Y-106703810D01*
X140462191Y-106703810D01*
X141033619Y-107084762D02*
X141176476Y-107132381D01*
X141414572Y-107132381D01*
X141509810Y-107084762D01*
X141557429Y-107037143D01*
X141605048Y-106941905D01*
X141605048Y-106846667D01*
X141557429Y-106751429D01*
X141509810Y-106703810D01*
X141414572Y-106656190D01*
X141224095Y-106608571D01*
X141128857Y-106560952D01*
X141081238Y-106513333D01*
X141033619Y-106418095D01*
X141033619Y-106322857D01*
X141081238Y-106227619D01*
X141128857Y-106180000D01*
X141224095Y-106132381D01*
X141462191Y-106132381D01*
X141605048Y-106180000D01*
X142605048Y-107037143D02*
X142557429Y-107084762D01*
X142414572Y-107132381D01*
X142319334Y-107132381D01*
X142176476Y-107084762D01*
X142081238Y-106989524D01*
X142033619Y-106894286D01*
X141986000Y-106703810D01*
X141986000Y-106560952D01*
X142033619Y-106370476D01*
X142081238Y-106275238D01*
X142176476Y-106180000D01*
X142319334Y-106132381D01*
X142414572Y-106132381D01*
X142557429Y-106180000D01*
X142605048Y-106227619D01*
X143176476Y-107132381D02*
X143081238Y-107084762D01*
X143033619Y-106989524D01*
X143033619Y-106132381D01*
X143557429Y-107132381D02*
X143557429Y-106132381D01*
X143652667Y-106751429D02*
X143938382Y-107132381D01*
X143938382Y-106465714D02*
X143557429Y-106846667D01*
X141017809Y-104290762D02*
X141160666Y-104338381D01*
X141398762Y-104338381D01*
X141494000Y-104290762D01*
X141541619Y-104243143D01*
X141589238Y-104147905D01*
X141589238Y-104052667D01*
X141541619Y-103957429D01*
X141494000Y-103909810D01*
X141398762Y-103862190D01*
X141208285Y-103814571D01*
X141113047Y-103766952D01*
X141065428Y-103719333D01*
X141017809Y-103624095D01*
X141017809Y-103528857D01*
X141065428Y-103433619D01*
X141113047Y-103386000D01*
X141208285Y-103338381D01*
X141446381Y-103338381D01*
X141589238Y-103386000D01*
X142160666Y-104338381D02*
X142065428Y-104290762D01*
X142017809Y-104243143D01*
X141970190Y-104147905D01*
X141970190Y-103862190D01*
X142017809Y-103766952D01*
X142065428Y-103719333D01*
X142160666Y-103671714D01*
X142303524Y-103671714D01*
X142398762Y-103719333D01*
X142446381Y-103766952D01*
X142494000Y-103862190D01*
X142494000Y-104147905D01*
X142446381Y-104243143D01*
X142398762Y-104290762D01*
X142303524Y-104338381D01*
X142160666Y-104338381D01*
X143351143Y-103671714D02*
X143351143Y-104338381D01*
X142922571Y-103671714D02*
X142922571Y-104195524D01*
X142970190Y-104290762D01*
X143065428Y-104338381D01*
X143208286Y-104338381D01*
X143303524Y-104290762D01*
X143351143Y-104243143D01*
X143684476Y-103671714D02*
X144065428Y-103671714D01*
X143827333Y-103338381D02*
X143827333Y-104195524D01*
X143874952Y-104290762D01*
X143970190Y-104338381D01*
X144065428Y-104338381D01*
X142875048Y-101417429D02*
X143636953Y-101417429D01*
X143129048Y-98623429D02*
X143890953Y-98623429D01*
X143510001Y-99004381D02*
X143510001Y-98242476D01*
X144589524Y-126182381D02*
X144018095Y-126182381D01*
X144303809Y-126182381D02*
X144303809Y-125182381D01*
X144208571Y-125325238D01*
X144113333Y-125420476D01*
X144018095Y-125468095D01*
X145494286Y-125182381D02*
X145018095Y-125182381D01*
X144970476Y-125658571D01*
X145018095Y-125610952D01*
X145113333Y-125563333D01*
X145351429Y-125563333D01*
X145446667Y-125610952D01*
X145494286Y-125658571D01*
X145541905Y-125753810D01*
X145541905Y-125991905D01*
X145494286Y-126087143D01*
X145446667Y-126134762D01*
X145351429Y-126182381D01*
X145113333Y-126182381D01*
X145018095Y-126134762D01*
X144970476Y-126087143D01*
X136461524Y-126182381D02*
X136652000Y-126182381D01*
X136747239Y-126134762D01*
X136794858Y-126087143D01*
X136890096Y-125944286D01*
X136937715Y-125753810D01*
X136937715Y-125372857D01*
X136890096Y-125277619D01*
X136842477Y-125230000D01*
X136747239Y-125182381D01*
X136556762Y-125182381D01*
X136461524Y-125230000D01*
X136413905Y-125277619D01*
X136366286Y-125372857D01*
X136366286Y-125610952D01*
X136413905Y-125706190D01*
X136461524Y-125753810D01*
X136556762Y-125801429D01*
X136747239Y-125801429D01*
X136842477Y-125753810D01*
X136890096Y-125706190D01*
X136937715Y-125610952D01*
X136810762Y-133230952D02*
X136715524Y-133183333D01*
X136667905Y-133135714D01*
X136620286Y-133040476D01*
X136620286Y-132992857D01*
X136667905Y-132897619D01*
X136715524Y-132850000D01*
X136810762Y-132802381D01*
X137001239Y-132802381D01*
X137096477Y-132850000D01*
X137144096Y-132897619D01*
X137191715Y-132992857D01*
X137191715Y-133040476D01*
X137144096Y-133135714D01*
X137096477Y-133183333D01*
X137001239Y-133230952D01*
X136810762Y-133230952D01*
X136715524Y-133278571D01*
X136667905Y-133326190D01*
X136620286Y-133421429D01*
X136620286Y-133611905D01*
X136667905Y-133707143D01*
X136715524Y-133754762D01*
X136810762Y-133802381D01*
X137001239Y-133802381D01*
X137096477Y-133754762D01*
X137144096Y-133707143D01*
X137191715Y-133611905D01*
X137191715Y-133421429D01*
X137144096Y-133326190D01*
X137096477Y-133278571D01*
X137001239Y-133230952D01*
X126412667Y-124928381D02*
X127079334Y-124928381D01*
X126650762Y-125928381D01*
X126936477Y-132548381D02*
X126746000Y-132548381D01*
X126650762Y-132596000D01*
X126603143Y-132643619D01*
X126507905Y-132786476D01*
X126460286Y-132976952D01*
X126460286Y-133357905D01*
X126507905Y-133453143D01*
X126555524Y-133500762D01*
X126650762Y-133548381D01*
X126841239Y-133548381D01*
X126936477Y-133500762D01*
X126984096Y-133453143D01*
X127031715Y-133357905D01*
X127031715Y-133119810D01*
X126984096Y-133024571D01*
X126936477Y-132976952D01*
X126841239Y-132929333D01*
X126650762Y-132929333D01*
X126555524Y-132976952D01*
X126507905Y-133024571D01*
X126460286Y-133119810D01*
X119157715Y-125928381D02*
X118586286Y-125928381D01*
X118872000Y-125928381D02*
X118872000Y-124928381D01*
X118776762Y-125071238D01*
X118681524Y-125166476D01*
X118586286Y-125214095D01*
D13*
X119078381Y-132802381D02*
X119173620Y-132802381D01*
X119268858Y-132850000D01*
X119316477Y-132897619D01*
X119364096Y-132992857D01*
X119411715Y-133183333D01*
X119411715Y-133421429D01*
X119364096Y-133611905D01*
X119316477Y-133707143D01*
X119268858Y-133754762D01*
X119173620Y-133802381D01*
X119078381Y-133802381D01*
X118983143Y-133754762D01*
X118935524Y-133707143D01*
X118887905Y-133611905D01*
X118840286Y-133421429D01*
X118840286Y-133183333D01*
X118887905Y-132992857D01*
X118935524Y-132897619D01*
X118983143Y-132850000D01*
X119078381Y-132802381D01*
D11*
X138751714Y-124146571D02*
X139037428Y-124146571D01*
X139180286Y-124218000D01*
X139323143Y-124360857D01*
X139394571Y-124646571D01*
X139394571Y-125146571D01*
X139323143Y-125432286D01*
X139180286Y-125575143D01*
X139037428Y-125646571D01*
X138751714Y-125646571D01*
X138608857Y-125575143D01*
X138466000Y-125432286D01*
X138394571Y-125146571D01*
X138394571Y-124646571D01*
X138466000Y-124360857D01*
X138608857Y-124218000D01*
X138751714Y-124146571D01*
X140680286Y-124646571D02*
X140680286Y-125646571D01*
X140037429Y-124646571D02*
X140037429Y-125432286D01*
X140108857Y-125575143D01*
X140251715Y-125646571D01*
X140466000Y-125646571D01*
X140608857Y-125575143D01*
X140680286Y-125503714D01*
X141180286Y-124646571D02*
X141751715Y-124646571D01*
X141394572Y-124146571D02*
X141394572Y-125432286D01*
X141466000Y-125575143D01*
X141608858Y-125646571D01*
X141751715Y-125646571D01*
X142180286Y-124289429D02*
X142251715Y-124218000D01*
X142394572Y-124146571D01*
X142751715Y-124146571D01*
X142894572Y-124218000D01*
X142966001Y-124289429D01*
X143037429Y-124432286D01*
X143037429Y-124575143D01*
X142966001Y-124789429D01*
X142108858Y-125646571D01*
X143037429Y-125646571D01*
X120717714Y-123892571D02*
X121003428Y-123892571D01*
X121146286Y-123964000D01*
X121289143Y-124106857D01*
X121360571Y-124392571D01*
X121360571Y-124892571D01*
X121289143Y-125178286D01*
X121146286Y-125321143D01*
X121003428Y-125392571D01*
X120717714Y-125392571D01*
X120574857Y-125321143D01*
X120432000Y-125178286D01*
X120360571Y-124892571D01*
X120360571Y-124392571D01*
X120432000Y-124106857D01*
X120574857Y-123964000D01*
X120717714Y-123892571D01*
X122646286Y-124392571D02*
X122646286Y-125392571D01*
X122003429Y-124392571D02*
X122003429Y-125178286D01*
X122074857Y-125321143D01*
X122217715Y-125392571D01*
X122432000Y-125392571D01*
X122574857Y-125321143D01*
X122646286Y-125249714D01*
X123146286Y-124392571D02*
X123717715Y-124392571D01*
X123360572Y-123892571D02*
X123360572Y-125178286D01*
X123432000Y-125321143D01*
X123574858Y-125392571D01*
X123717715Y-125392571D01*
X125003429Y-125392571D02*
X124146286Y-125392571D01*
X124574858Y-125392571D02*
X124574858Y-123892571D01*
X124432001Y-124106857D01*
X124289143Y-124249714D01*
X124146286Y-124321143D01*
D14*
X133088000Y-108168000D02*
X127088000Y-108168000D01*
X127088000Y-103668000D02*
X133088000Y-103668000D01*
D15*
X144660000Y-100076000D02*
X144660000Y-107816000D01*
X144660000Y-107816000D02*
X149980000Y-107816000D01*
X149980000Y-107816000D02*
X149980000Y-97416000D01*
X149980000Y-97416000D02*
X147320000Y-97416000D01*
X147320000Y-97416000D02*
X147320000Y-100076000D01*
X147320000Y-100076000D02*
X144660000Y-100076000D01*
X144660000Y-98806000D02*
X144660000Y-97416000D01*
X144660000Y-97416000D02*
X146050000Y-97416000D01*
X120396000Y-131946000D02*
X128136000Y-131946000D01*
X128136000Y-131946000D02*
X128136000Y-126626000D01*
X128136000Y-126626000D02*
X117736000Y-126626000D01*
X117736000Y-126626000D02*
X117736000Y-129286000D01*
X117736000Y-129286000D02*
X120396000Y-129286000D01*
X120396000Y-129286000D02*
X120396000Y-131946000D01*
X119126000Y-131946000D02*
X117736000Y-131946000D01*
X117736000Y-131946000D02*
X117736000Y-130556000D01*
X138176000Y-132200000D02*
X145916000Y-132200000D01*
X145916000Y-132200000D02*
X145916000Y-126880000D01*
X145916000Y-126880000D02*
X135516000Y-126880000D01*
X135516000Y-126880000D02*
X135516000Y-129540000D01*
X135516000Y-129540000D02*
X138176000Y-129540000D01*
X138176000Y-129540000D02*
X138176000Y-132200000D01*
X136906000Y-132200000D02*
X135516000Y-132200000D01*
X135516000Y-132200000D02*
X135516000Y-130810000D01*
D14*
X133858000Y-97028000D02*
X138938000Y-97028000D01*
X138938000Y-97028000D02*
X138938000Y-99568000D01*
X138938000Y-99568000D02*
X133858000Y-99568000D01*
X133858000Y-99568000D02*
X133858000Y-97028000D01*
X126238000Y-99568000D02*
X121158000Y-99568000D01*
X121158000Y-99568000D02*
X121158000Y-97028000D01*
X121158000Y-97028000D02*
X126238000Y-97028000D01*
X126238000Y-97028000D02*
X126238000Y-99568000D01*
D15*
X112402000Y-114824000D02*
G75*
G02X112402000Y-116824000I0J-1000000D01*
G01*
X112402000Y-116824000D02*
X112402000Y-118194000D01*
X112402000Y-118194000D02*
X148202000Y-118194000D01*
X148202000Y-118194000D02*
X148202000Y-113454000D01*
X148202000Y-113454000D02*
X112402000Y-113454000D01*
X112402000Y-113454000D02*
X112402000Y-114824000D01*
X112402000Y-121024000D02*
X148202000Y-121024000D01*
X148202000Y-121024000D02*
X148202000Y-110624000D01*
X148202000Y-110624000D02*
X112402000Y-110624000D01*
X112402000Y-110624000D02*
X112402000Y-121024000D01*
X149606000Y-92964000D02*
G75*
G03X149606000Y-92964000I-2286000J0D01*
G01*
X116840000Y-135636000D02*
G75*
G03X116840000Y-135636000I-2286000J0D01*
G01*
X149606000Y-135636000D02*
G75*
G03X149606000Y-135636000I-2286000J0D01*
G01*
X116840000Y-92964000D02*
G75*
G03X116840000Y-92964000I-2286000J0D01*
G01*
D14*
X132421334Y-102719143D02*
X132373715Y-102766762D01*
X132230858Y-102814381D01*
X132135620Y-102814381D01*
X131992762Y-102766762D01*
X131897524Y-102671524D01*
X131849905Y-102576286D01*
X131802286Y-102385810D01*
X131802286Y-102242952D01*
X131849905Y-102052476D01*
X131897524Y-101957238D01*
X131992762Y-101862000D01*
X132135620Y-101814381D01*
X132230858Y-101814381D01*
X132373715Y-101862000D01*
X132421334Y-101909619D01*
X133373715Y-102814381D02*
X132802286Y-102814381D01*
X133088000Y-102814381D02*
X133088000Y-101814381D01*
X132992762Y-101957238D01*
X132897524Y-102052476D01*
X132802286Y-102100095D01*
X146835905Y-109418381D02*
X146835905Y-108418381D01*
X147216858Y-108418381D01*
X147312096Y-108466000D01*
X147359715Y-108513619D01*
X147407334Y-108608857D01*
X147407334Y-108751714D01*
X147359715Y-108846952D01*
X147312096Y-108894571D01*
X147216858Y-108942190D01*
X146835905Y-108942190D01*
X148359715Y-109418381D02*
X147788286Y-109418381D01*
X148074000Y-109418381D02*
X148074000Y-108418381D01*
X147978762Y-108561238D01*
X147883524Y-108656476D01*
X147788286Y-108704095D01*
X117188381Y-130024095D02*
X116188381Y-130024095D01*
X116188381Y-129643142D01*
X116236000Y-129547904D01*
X116283619Y-129500285D01*
X116378857Y-129452666D01*
X116521714Y-129452666D01*
X116616952Y-129500285D01*
X116664571Y-129547904D01*
X116712190Y-129643142D01*
X116712190Y-130024095D01*
X116283619Y-129071714D02*
X116236000Y-129024095D01*
X116188381Y-128928857D01*
X116188381Y-128690761D01*
X116236000Y-128595523D01*
X116283619Y-128547904D01*
X116378857Y-128500285D01*
X116474095Y-128500285D01*
X116616952Y-128547904D01*
X117188381Y-129119333D01*
X117188381Y-128500285D01*
X134968381Y-130278095D02*
X133968381Y-130278095D01*
X133968381Y-129897142D01*
X134016000Y-129801904D01*
X134063619Y-129754285D01*
X134158857Y-129706666D01*
X134301714Y-129706666D01*
X134396952Y-129754285D01*
X134444571Y-129801904D01*
X134492190Y-129897142D01*
X134492190Y-130278095D01*
X133968381Y-129373333D02*
X133968381Y-128754285D01*
X134349333Y-129087619D01*
X134349333Y-128944761D01*
X134396952Y-128849523D01*
X134444571Y-128801904D01*
X134539810Y-128754285D01*
X134777905Y-128754285D01*
X134873143Y-128801904D01*
X134920762Y-128849523D01*
X134968381Y-128944761D01*
X134968381Y-129230476D01*
X134920762Y-129325714D01*
X134873143Y-129373333D01*
X139025334Y-96210381D02*
X138692000Y-95734190D01*
X138453905Y-96210381D02*
X138453905Y-95210381D01*
X138834858Y-95210381D01*
X138930096Y-95258000D01*
X138977715Y-95305619D01*
X139025334Y-95400857D01*
X139025334Y-95543714D01*
X138977715Y-95638952D01*
X138930096Y-95686571D01*
X138834858Y-95734190D01*
X138453905Y-95734190D01*
X139977715Y-96210381D02*
X139406286Y-96210381D01*
X139692000Y-96210381D02*
X139692000Y-95210381D01*
X139596762Y-95353238D01*
X139501524Y-95448476D01*
X139406286Y-95496095D01*
X126071334Y-96210381D02*
X125738000Y-95734190D01*
X125499905Y-96210381D02*
X125499905Y-95210381D01*
X125880858Y-95210381D01*
X125976096Y-95258000D01*
X126023715Y-95305619D01*
X126071334Y-95400857D01*
X126071334Y-95543714D01*
X126023715Y-95638952D01*
X125976096Y-95686571D01*
X125880858Y-95734190D01*
X125499905Y-95734190D01*
X126452286Y-95305619D02*
X126499905Y-95258000D01*
X126595143Y-95210381D01*
X126833239Y-95210381D01*
X126928477Y-95258000D01*
X126976096Y-95305619D01*
X127023715Y-95400857D01*
X127023715Y-95496095D01*
X126976096Y-95638952D01*
X126404667Y-96210381D01*
X127023715Y-96210381D01*
X110854381Y-116585905D02*
X111663905Y-116585905D01*
X111759143Y-116538286D01*
X111806762Y-116490667D01*
X111854381Y-116395429D01*
X111854381Y-116204952D01*
X111806762Y-116109714D01*
X111759143Y-116062095D01*
X111663905Y-116014476D01*
X110854381Y-116014476D01*
X111854381Y-115014476D02*
X111854381Y-115585905D01*
X111854381Y-115300191D02*
X110854381Y-115300191D01*
X110997238Y-115395429D01*
X111092476Y-115490667D01*
X111140095Y-115585905D01*
M02*
