G04 #@! TF.FileFunction,Copper,L2,Bot,Signal*
%FSLAX46Y46*%
G04 Gerber Fmt 4.6, Leading zero omitted, Abs format (unit mm)*
G04 Created by KiCad (PCBNEW 4.0.5) date 01/05/17 20:52:27*
%MOMM*%
%LPD*%
G01*
G04 APERTURE LIST*
%ADD10C,0.100000*%
%ADD11R,1.400000X1.400000*%
%ADD12C,1.400000*%
%ADD13R,1.700000X1.700000*%
%ADD14O,1.700000X1.700000*%
%ADD15C,1.998980*%
%ADD16R,1.600000X2.400000*%
%ADD17O,1.600000X2.400000*%
%ADD18C,4.064000*%
%ADD19C,0.600000*%
%ADD20C,0.500000*%
%ADD21C,0.250000*%
G04 APERTURE END LIST*
D10*
D11*
X132588000Y-105918000D03*
D12*
X127588000Y-105918000D03*
D13*
X146050000Y-98806000D03*
D14*
X148590000Y-98806000D03*
X146050000Y-101346000D03*
X148590000Y-101346000D03*
X146050000Y-103886000D03*
X148590000Y-103886000D03*
X146050000Y-106426000D03*
X148590000Y-106426000D03*
D13*
X119126000Y-130556000D03*
D14*
X119126000Y-128016000D03*
X121666000Y-130556000D03*
X121666000Y-128016000D03*
X124206000Y-130556000D03*
X124206000Y-128016000D03*
X126746000Y-130556000D03*
X126746000Y-128016000D03*
D13*
X136906000Y-130810000D03*
D14*
X136906000Y-128270000D03*
X139446000Y-130810000D03*
X139446000Y-128270000D03*
X141986000Y-130810000D03*
X141986000Y-128270000D03*
X144526000Y-130810000D03*
X144526000Y-128270000D03*
D15*
X132588000Y-98298000D03*
X140208000Y-98298000D03*
X127508000Y-98298000D03*
X119888000Y-98298000D03*
D16*
X113792000Y-119634000D03*
D17*
X146812000Y-112014000D03*
X116332000Y-119634000D03*
X144272000Y-112014000D03*
X118872000Y-119634000D03*
X141732000Y-112014000D03*
X121412000Y-119634000D03*
X139192000Y-112014000D03*
X123952000Y-119634000D03*
X136652000Y-112014000D03*
X126492000Y-119634000D03*
X134112000Y-112014000D03*
X129032000Y-119634000D03*
X131572000Y-112014000D03*
X131572000Y-119634000D03*
X129032000Y-112014000D03*
X134112000Y-119634000D03*
X126492000Y-112014000D03*
X136652000Y-119634000D03*
X123952000Y-112014000D03*
X139192000Y-119634000D03*
X121412000Y-112014000D03*
X141732000Y-119634000D03*
X118872000Y-112014000D03*
X144272000Y-119634000D03*
X116332000Y-112014000D03*
X146812000Y-119634000D03*
X113792000Y-112014000D03*
D18*
X147320000Y-92964000D03*
X114554000Y-135636000D03*
X147320000Y-135636000D03*
X114554000Y-92964000D03*
D19*
X141732000Y-105156000D03*
D20*
X146050000Y-101346000D02*
X129286000Y-101346000D01*
X127588000Y-103044000D02*
X127588000Y-105918000D01*
X129286000Y-101346000D02*
X127588000Y-103044000D01*
D21*
X148590000Y-98806000D02*
X148590000Y-97282000D01*
X117856000Y-110998000D02*
X118872000Y-112014000D01*
X117856000Y-97282000D02*
X117856000Y-110998000D01*
X118872000Y-96266000D02*
X117856000Y-97282000D01*
X147574000Y-96266000D02*
X118872000Y-96266000D01*
X148590000Y-97282000D02*
X147574000Y-96266000D01*
X148590000Y-101346000D02*
X149860000Y-101346000D01*
X121412000Y-116586000D02*
X121412000Y-112014000D01*
X122174000Y-117348000D02*
X121412000Y-116586000D01*
X149098000Y-117348000D02*
X122174000Y-117348000D01*
X150368000Y-116078000D02*
X149098000Y-117348000D01*
X150368000Y-101854000D02*
X150368000Y-116078000D01*
X149860000Y-101346000D02*
X150368000Y-101854000D01*
X141732000Y-112014000D02*
X141732000Y-108204000D01*
X141732000Y-108204000D02*
X146050000Y-103886000D01*
X148590000Y-103886000D02*
X147320000Y-105156000D01*
X123952000Y-115824000D02*
X123952000Y-112014000D01*
X124714000Y-116586000D02*
X123952000Y-115824000D01*
X144780000Y-116586000D02*
X124714000Y-116586000D01*
X145542000Y-115824000D02*
X144780000Y-116586000D01*
X145542000Y-109728000D02*
X145542000Y-115824000D01*
X147320000Y-107950000D02*
X145542000Y-109728000D01*
X147320000Y-105156000D02*
X147320000Y-107950000D01*
X123444000Y-111506000D02*
X123952000Y-112014000D01*
X126492000Y-112014000D02*
X126492000Y-113030000D01*
X126492000Y-113030000D02*
X127508000Y-114046000D01*
X127508000Y-114046000D02*
X137160000Y-114046000D01*
X137160000Y-114046000D02*
X137922000Y-113284000D01*
X137922000Y-113284000D02*
X137922000Y-108966000D01*
X137922000Y-108966000D02*
X141732000Y-105156000D01*
X116332000Y-119634000D02*
X116332000Y-124714000D01*
X121666000Y-132334000D02*
X121666000Y-130556000D01*
X120904000Y-133096000D02*
X121666000Y-132334000D01*
X118364000Y-133096000D02*
X120904000Y-133096000D01*
X117348000Y-132080000D02*
X118364000Y-133096000D01*
X117348000Y-125730000D02*
X117348000Y-132080000D01*
X116332000Y-124714000D02*
X117348000Y-125730000D01*
X121412000Y-119634000D02*
X121412000Y-124460000D01*
X122936000Y-129286000D02*
X124206000Y-130556000D01*
X122936000Y-125984000D02*
X122936000Y-129286000D01*
X121412000Y-124460000D02*
X122936000Y-125984000D01*
X126492000Y-119634000D02*
X126492000Y-124714000D01*
X125476000Y-129286000D02*
X126746000Y-130556000D01*
X125476000Y-125730000D02*
X125476000Y-129286000D01*
X126492000Y-124714000D02*
X125476000Y-125730000D01*
X136652000Y-119634000D02*
X136652000Y-122936000D01*
X139446000Y-132842000D02*
X139446000Y-130810000D01*
X138430000Y-133858000D02*
X139446000Y-132842000D01*
X135382000Y-133858000D02*
X138430000Y-133858000D01*
X133350000Y-131826000D02*
X135382000Y-133858000D01*
X133350000Y-126238000D02*
X133350000Y-131826000D01*
X136652000Y-122936000D02*
X133350000Y-126238000D01*
X141732000Y-119634000D02*
X141732000Y-123190000D01*
X140716000Y-129540000D02*
X141986000Y-130810000D01*
X140716000Y-124206000D02*
X140716000Y-129540000D01*
X141732000Y-123190000D02*
X140716000Y-124206000D01*
X146812000Y-119634000D02*
X146812000Y-128524000D01*
X146812000Y-128524000D02*
X144526000Y-130810000D01*
X134112000Y-112014000D02*
X134112000Y-110744000D01*
X125222000Y-100584000D02*
X127508000Y-98298000D01*
X125222000Y-108204000D02*
X125222000Y-100584000D01*
X126492000Y-109474000D02*
X125222000Y-108204000D01*
X132842000Y-109474000D02*
X126492000Y-109474000D01*
X134112000Y-110744000D02*
X132842000Y-109474000D01*
M02*
