M48
INCH,TZ
T1C0.016
T2C0.031
T3C0.035
T4C0.039
T5C0.039
T6C0.120
%
G90
G05
T1
X55800Y-41400
T2
X44800Y-44100
X44800Y-47100
X45800Y-44100
X45800Y-47100
X46800Y-44100
X46800Y-47100
X47800Y-44100
X47800Y-47100
X48800Y-44100
X48800Y-47100
X49800Y-44100
X49800Y-47100
X50800Y-44100
X50800Y-47100
X51800Y-44100
X51800Y-47100
X52800Y-44100
X52800Y-47100
X53800Y-44100
X53800Y-47100
X54800Y-44100
X54800Y-47100
X55800Y-44100
X55800Y-47100
X56800Y-44100
X56800Y-47100
X57800Y-44100
X57800Y-47100
T3
X50231Y-41700
X52200Y-41700
T4
X46900Y-50400
X46900Y-51400
X47900Y-50400
X47900Y-51400
X48900Y-50400
X48900Y-51400
X49900Y-50400
X49900Y-51400
X53900Y-50500
X53900Y-51500
X54900Y-50500
X54900Y-51500
X55900Y-50500
X55900Y-51500
X56900Y-50500
X56900Y-51500
X57500Y-38900
X57500Y-39900
X57500Y-40900
X57500Y-41900
X58500Y-38900
X58500Y-39900
X58500Y-40900
X58500Y-41900
T5
X47200Y-38700
X50200Y-38700
X52200Y-38700
X55200Y-38700
T6
X45100Y-36600
X45100Y-53400
X58000Y-36600
X58000Y-53400
T0
M30
